<svg xmlns="http://www.w3.org/2000/svg">
<defs>
<symbol id="arrow_up_sm" viewBox="0 0 32 32">
<path stroke-linejoin="round" stroke="currentColor" fill="none" stroke-linecap="round" stroke-miterlimit="4" stroke-width="2" d="M12 17.333l4-4 4 4"></path>
</symbol>
<symbol id="settings" fill="none" viewBox="0 0 32 32">
<path stroke-linejoin="round" stroke="currentColor" stroke-linecap="round"  stroke-width="2" d="M24.793 12.070l-0.388-0.216c-0.060-0.034-0.091-0.050-0.12-0.068-0.29-0.174-0.534-0.414-0.712-0.701-0.018-0.029-0.036-0.059-0.070-0.118s-0.052-0.090-0.068-0.12c-0.16-0.298-0.246-0.631-0.251-0.969-0-0.031 0-0.062 0.001-0.118l0-0.020 0.007-0.442c0.012-0.728 0.018-1.091-0.083-1.418-0.090-0.289-0.241-0.555-0.442-0.78-0.227-0.255-0.542-0.436-1.171-0.798l-0.003-0.002-0.524-0.302c-0.629-0.362-0.943-0.543-1.277-0.613-0.295-0.061-0.6-0.059-0.895 0.007-0.332 0.074-0.642 0.26-1.262 0.631l-0.005 0.003-0.375 0.225c-0.059 0.036-0.089 0.053-0.119 0.070-0.295 0.164-0.625 0.255-0.963 0.266-0.034 0.001-0.069 0.001-0.138 0.001h-0.001c-0.069 0-0.103 0-0.137-0.001-0.338-0.011-0.669-0.103-0.965-0.267-0.029-0.016-0.057-0.033-0.113-0.066l-0.387-0.232c-0.623-0.374-0.935-0.561-1.269-0.636-0.296-0.066-0.602-0.069-0.898-0.007-0.335 0.070-0.651 0.253-1.281 0.619l-0.517 0.3c-0.627 0.364-0.941 0.546-1.167 0.801-0.2 0.225-0.35 0.491-0.44 0.779-0.101 0.325-0.096 0.688-0.083 1.413l0.008 0.45c0.001 0.068 0.002 0.102 0.001 0.136-0.005 0.339-0.091 0.672-0.252 0.971-0.016 0.030-0.033 0.059-0.067 0.118l-0 0c-0.034 0.059-0.051 0.089-0.069 0.117-0.179 0.288-0.425 0.53-0.716 0.703-0.029 0.017-0.058 0.034-0.118 0.067l-0.384 0.213c-0.638 0.354-0.957 0.53-1.189 0.782-0.205 0.223-0.361 0.487-0.455 0.775-0.107 0.325-0.106 0.689-0.104 1.417v0.003l0.001 0.596 0 0.006c0.002 0.72 0.002 1.081 0.109 1.404 0.095 0.286 0.25 0.548 0.454 0.77 0.231 0.25 0.547 0.426 1.179 0.777l0.002 0.001 0.385 0.214c0.061 0.034 0.093 0.052 0.123 0.070 0.289 0.174 0.532 0.414 0.709 0.701 0.019 0.031 0.038 0.063 0.074 0.127l0.013 0.022c0.028 0.049 0.044 0.077 0.059 0.105 0.156 0.295 0.24 0.622 0.245 0.955 0.001 0.036 0 0.073-0.001 0.146l-0.007 0.432-0 0.002c-0.012 0.727-0.018 1.090 0.083 1.416 0.090 0.289 0.241 0.555 0.442 0.78 0.228 0.255 0.543 0.437 1.173 0.8l0.524 0.302c0.629 0.362 0.944 0.543 1.278 0.613 0.295 0.061 0.6 0.059 0.895-0.007 0.332-0.074 0.642-0.26 1.262-0.632l0.004-0.002 0.375-0.225c0.059-0.036 0.089-0.053 0.119-0.070 0.295-0.164 0.625-0.255 0.963-0.266 0.034-0.001 0.069-0.001 0.138-0.001s0.105 0 0.139 0.001c0.338 0.011 0.669 0.103 0.965 0.267 0.030 0.017 0.060 0.035 0.119 0.070l0.379 0.227c0.625 0.375 0.937 0.562 1.271 0.637 0.295 0.066 0.601 0.069 0.898 0.007 0.335-0.070 0.651-0.253 1.281-0.619l0.517-0.3c0.627-0.364 0.941-0.546 1.167-0.801 0.2-0.225 0.35-0.491 0.44-0.779 0.101-0.325 0.095-0.688 0.083-1.413l-0.007-0.451-0-0.023c-0.001-0.053-0.001-0.083-0.001-0.113 0.005-0.339 0.091-0.672 0.252-0.971 0.016-0.030 0.033-0.059 0.067-0.118s0.051-0.089 0.069-0.117c0.179-0.288 0.424-0.53 0.716-0.703 0.028-0.017 0.057-0.033 0.113-0.064l0.006-0.003 0.384-0.213c0.638-0.354 0.957-0.53 1.189-0.782 0.205-0.223 0.361-0.487 0.455-0.775 0.107-0.325 0.107-0.69 0.105-1.42l-0.001-0.596c-0.002-0.725-0.003-1.087-0.11-1.41-0.095-0.286-0.25-0.548-0.454-0.77-0.231-0.25-0.547-0.426-1.181-0.779z"></path>
</symbol>
<symbol id="add" viewBox="0 0 32 32">
<path d="M10.889 15.667c-0.552 0-1 0.448-1 1s0.448 1 1 1v-2zM19.778 17.667c0.552 0 1-0.448 1-1s-0.448-1-1-1v2zM14.333 21.111c0 0.552 0.448 1 1 1s1-0.448 1-1h-2zM16.333 12.222c0-0.552-0.448-1-1-1s-1 0.448-1 1h2zM15.333 25.667c-4.971 0-9-4.029-9-9h-2c0 6.075 4.925 11 11 11v-2zM6.333 16.667c0-4.971 4.029-9 9-9v-2c-6.075 0-11 4.925-11 11h2zM15.333 7.667c4.971 0 9 4.029 9 9h2c0-6.075-4.925-11-11-11v2zM24.333 16.667c0 4.971-4.029 9-9 9v2c6.075 0 11-4.925 11-11h-2zM10.889 17.667h8.889v-2h-8.889v2zM16.333 21.111v-8.889h-2v8.889h2z"></path>
</symbol>
<symbol id="signout" fill="currentColor" viewBox="0 0 32 32">
<path d="M18 27c0 0.265 0.105 0.52 0.293 0.707s0.442 0.293 0.707 0.293h7c0.53 0 1.039-0.211 1.414-0.586s0.586-0.884 0.586-1.414v-20c0-0.53-0.211-1.039-0.586-1.414s-0.884-0.586-1.414-0.586h-7c-0.265 0-0.52 0.105-0.707 0.293s-0.293 0.442-0.293 0.707 0.105 0.52 0.293 0.707c0.187 0.188 0.442 0.293 0.707 0.293h7v20h-7c-0.265 0-0.52 0.105-0.707 0.293s-0.293 0.442-0.293 0.707zM4.293 15.293l5-5c0.188-0.188 0.442-0.293 0.707-0.293s0.52 0.105 0.707 0.293c0.188 0.188 0.293 0.442 0.293 0.707s-0.105 0.52-0.293 0.707l-3.294 3.293h11.586c0.265 0 0.52 0.105 0.707 0.293s0.293 0.442 0.293 0.707-0.105 0.52-0.293 0.707c-0.187 0.188-0.442 0.293-0.707 0.293h-11.586l3.294 3.293c0.188 0.188 0.293 0.442 0.293 0.707s-0.105 0.52-0.293 0.707c-0.188 0.188-0.442 0.293-0.707 0.293s-0.52-0.105-0.707-0.293l-5-5c-0.093-0.093-0.167-0.203-0.217-0.325s-0.076-0.251-0.076-0.383 0.026-0.262 0.076-0.383c0.050-0.121 0.124-0.232 0.217-0.325z"></path>
</symbol>
<symbol id="google" viewBox="0 0 32 32">
<path fill="#007aff" style="fill: var(--color1, #007aff)" d="M29.411 16.296c0-1.096-0.091-1.896-0.288-2.726h-12.811v4.948h7.519c-0.151 1.23-0.97 3.082-2.789 4.326l-0.025 0.166 4.050 3.066 0.281 0.027c2.577-2.326 4.063-5.748 4.063-9.807z"></path>
<path fill="#34a853" style="fill: var(--color2, #34a853)" d="M16.311 29.333c3.684 0 6.777-1.185 9.036-3.23l-4.306-3.259c-1.152 0.785-2.699 1.333-4.73 1.333-3.608 0-6.671-2.326-7.762-5.541l-0.16 0.013-4.212 3.185-0.055 0.15c2.244 4.355 6.853 7.348 12.189 7.348z"></path>
<path fill="#ffd426" style="fill: var(--color3, #ffd426)" d="M8.549 18.638c-0.288-0.83-0.455-1.719-0.455-2.637s0.167-1.807 0.44-2.637l-0.008-0.177-4.265-3.236-0.14 0.065c-0.925 1.807-1.455 3.837-1.455 5.985s0.531 4.178 1.455 5.985l4.427-3.348z"></path>
<path fill="#ff3b30" style="fill: var(--color4, #ff3b30)" d="M16.311 7.822c2.562 0 4.29 1.081 5.276 1.985l3.851-3.674c-2.365-2.148-5.443-3.467-9.127-3.467-5.337 0-9.945 2.993-12.189 7.348l4.412 3.348c1.107-3.215 4.169-5.541 7.777-5.541z"></path>
</symbol>
<symbol id="arrow_back" viewBox="0 0 32 32">
<path stroke-linejoin="round" stroke-linecap="round" stroke-miterlimit="4" stroke-width="2" d="M27.333 15.333h-23.333M4 15.333l10 10M4 15.333l10-10"></path>
</symbol>
<symbol id="arrow_down_sm" viewBox="0 0 32 32">
<path stroke-linejoin="round" stroke-linecap="round" stroke-miterlimit="4" stroke-width="2" d="M20 14.667l-4 4-4-4"></path>
</symbol>
<symbol id="arrow_right_sm" viewBox="0 0 32 32">
<path stroke-linejoin="round" stroke-linecap="round" stroke-miterlimit="4" stroke-width="2" d="M14.667 12l4 4-4 4"></path>
</symbol>
<symbol id="arrow_left_sm" viewBox="0 0 32 32">
<path stroke-linejoin="round" stroke-linecap="round" stroke-miterlimit="4" stroke-width="2" d="M17.333 20l-4-4 4-4"></path>
</symbol>
<symbol id="arrow_up" viewBox="0 0 32 32">
<path stroke-linejoin="round" stroke-linecap="round" stroke-miterlimit="4" stroke-width="2" d="M6.667 21.333l9.333-9.333 9.333 9.333"></path>
</symbol>
<symbol id="arrow_down" viewBox="0 0 32 32">
<path stroke-linejoin="round" stroke-linecap="round" stroke-miterlimit="4" stroke-width="2" d="M25.333 12l-9.333 9.333-9.333-9.333"></path>
</symbol>
<symbol id="arrow_right" viewBox="0 0 32 32">
<path stroke-linejoin="round" stroke-linecap="round" stroke-miterlimit="4" stroke-width="2" d="M12 6.667l9.333 9.333-9.333 9.333"></path>
</symbol>
<symbol id="arrow_left" viewBox="0 0 32 32">
<path stroke-linejoin="round" stroke-linecap="round" stroke-miterlimit="4" stroke-width="2" d="M20 25.333l-9.333-9.333 9.333-9.333"></path>
</symbol>
<symbol id="turn" viewBox="0 0 32 32">
<path stroke-linejoin="round" stroke-linecap="round" stroke-miterlimit="4" stroke-width="2" d="M18.667 21.333h6.667v6.667M13.333 10.667h-6.667v-6.667M25.89 12.004c-0.748-1.85-1.999-3.454-3.613-4.628s-3.524-1.873-5.514-2.015c-1.991-0.143-3.982 0.276-5.746 1.208s-3.232 2.341-4.236 4.066M6.109 19.996c0.748 1.85 1.999 3.454 3.613 4.628s3.525 1.873 5.515 2.015c1.991 0.143 3.981-0.276 5.745-1.208s3.231-2.341 4.235-4.066"></path>
</symbol>
<symbol id="dots" viewBox="0 0 32 32">
<path d="M10.667 16c0 0.707-0.281 1.385-0.781 1.886s-1.178 0.781-1.886 0.781c-0.707 0-1.386-0.281-1.886-0.781s-0.781-1.178-0.781-1.886c0-0.707 0.281-1.385 0.781-1.886s1.178-0.781 1.886-0.781c0.707 0 1.386 0.281 1.886 0.781s0.781 1.178 0.781 1.886zM18.667 16c0 0.707-0.281 1.385-0.781 1.886s-1.178 0.781-1.886 0.781c-0.707 0-1.385-0.281-1.886-0.781s-0.781-1.178-0.781-1.886c0-0.707 0.281-1.385 0.781-1.886s1.178-0.781 1.886-0.781c0.707 0 1.385 0.281 1.886 0.781s0.781 1.178 0.781 1.886zM24 18.667c0.707 0 1.385-0.281 1.886-0.781s0.781-1.178 0.781-1.886c0-0.707-0.281-1.385-0.781-1.886s-1.178-0.781-1.886-0.781c-0.707 0-1.385 0.281-1.886 0.781s-0.781 1.178-0.781 1.886c0 0.707 0.281 1.385 0.781 1.886s1.178 0.781 1.886 0.781z"></path>
</symbol>
<symbol id="global_search" viewBox="0 0 32 32">
<path stroke-linejoin="round" stroke-linecap="round" stroke-miterlimit="4" stroke-width="2" d="M19.137 23.529h8.784M5.333 23.529h2.51M7.843 23.529c0 1.733 1.405 3.137 3.137 3.137s3.137-1.405 3.137-3.137c0-1.733-1.405-3.137-3.137-3.137s-3.137 1.405-3.137 3.137zM26.667 16h1.255M5.333 16h8.784M17.882 8.471h10.039M17.882 8.471c0-1.733-1.405-3.137-3.137-3.137s-3.137 1.405-3.137 3.137 1.405 3.137 3.137 3.137c1.733 0 3.137-1.405 3.137-3.137zM5.333 8.471h1.255M22.275 19.137c-1.733 0-3.137-1.405-3.137-3.137s1.405-3.137 3.137-3.137c1.733 0 3.137 1.405 3.137 3.137s-1.405 3.137-3.137 3.137z"></path>
</symbol>
<symbol id="search" viewBox="0 0 32 32">
<path d="M20.263 18.848c-0.391-0.391-1.024-0.391-1.414 0s-0.391 1.024 0 1.414l1.414-1.414zM25.96 27.374c0.391 0.391 1.024 0.391 1.414 0s0.391-1.024 0-1.414l-1.414 1.414zM13.63 20.926c-4.030 0-7.296-3.267-7.296-7.296h-2c0 5.134 4.162 9.296 9.296 9.296v-2zM6.333 13.63c0-4.030 3.267-7.296 7.296-7.296v-2c-5.134 0-9.296 4.162-9.296 9.296h2zM13.63 6.333c4.030 0 7.296 3.267 7.296 7.296h2c0-5.134-4.162-9.296-9.296-9.296v2zM20.926 13.63c0 4.030-3.267 7.296-7.296 7.296v2c5.134 0 9.296-4.162 9.296-9.296h-2zM18.848 20.263l7.111 7.111 1.414-1.414-7.111-7.111-1.414 1.414z"></path>
</symbol>
<symbol id="vector" viewBox="0 0 32 32">
<path stroke-linejoin="miter" stroke-linecap="round" stroke-miterlimit="4" stroke-width="2.6667" d="M28.082 1.778h-24.164c-0.342-0-0.676 0.098-0.964 0.283s-0.515 0.449-0.657 0.76c-0.141 0.311-0.19 0.657-0.14 0.995s0.196 0.655 0.422 0.912l9.426 10.77c0.284 0.324 0.44 0.741 0.439 1.172v8.665c0 0.138 0.032 0.274 0.094 0.398s0.151 0.231 0.262 0.314l5.333 4c0.132 0.099 0.289 0.159 0.453 0.174s0.33-0.017 0.477-0.090c0.148-0.074 0.272-0.187 0.359-0.328s0.133-0.302 0.133-0.467v-12.665c-0.001-0.431 0.156-0.847 0.439-1.172l9.426-10.772c1.006-1.148 0.188-2.948-1.339-2.948z"></path>
</symbol>
<symbol id="delete" viewBox="0 0 32 32">
<path stroke-linejoin="miter" stroke-linecap="butt" stroke-miterlimit="4" stroke-width="1.3333" d="M13.088 9.263v0.667h5.825v-0.947c0-0.772-0.307-1.513-0.853-2.059s-1.287-0.853-2.059-0.853c-0.772 0-1.513 0.307-2.059 0.853s-0.853 1.287-0.853 2.059v0.281zM12.351 9.93h0.667v-0.947c0-0.791 0.314-1.55 0.874-2.109s1.318-0.874 2.109-0.874c0.791 0 1.55 0.314 2.109 0.874s0.873 1.318 0.873 2.109v0.947h6.983c0.009 0 0.018 0.004 0.025 0.010s0.010 0.015 0.010 0.025c0 0.009-0.004 0.018-0.010 0.025s-0.015 0.010-0.025 0.010h-2.251l-0.051 0.611-1.123 13.393c0 0 0 0 0 0-0.071 0.85-0.46 1.643-1.088 2.221s-1.451 0.898-2.304 0.898h-6.297c0 0-0 0-0 0-0.853-0-1.676-0.321-2.304-0.898s-1.016-1.37-1.088-2.221c0 0 0-0 0-0l-1.174-14.004h-2.251c-0.009 0-0.018-0.004-0.025-0.010s-0.010-0.015-0.010-0.025c0-0.009 0.004-0.018 0.010-0.025s0.016-0.010 0.025-0.010h6.316zM12.852 27.053h6.297c0 0 0 0 0 0 0.836 0 1.641-0.314 2.257-0.88s0.996-1.342 1.065-2.175v0l1.173-13.998h-15.287l0.061 0.722 1.113 13.276c0.070 0.833 0.45 1.609 1.065 2.175s1.42 0.88 2.256 0.88zM13.927 14.443v0c0.002 0.004 0.003 0.009 0.003 0.013v8.14c0 0.005-0.001 0.009-0.003 0.013s-0.004 0.008-0.008 0.011c-0.003 0.003-0.007 0.006-0.011 0.008s-0.009 0.003-0.013 0.003c-0.005 0-0.009-0.001-0.013-0.003s-0.008-0.004-0.011-0.008c-0.003-0.003-0.006-0.007-0.008-0.011s-0.003-0.009-0.003-0.013v-8.14c0-0.005 0.001-0.009 0.003-0.013v0c0.002-0.004 0.004-0.008 0.008-0.011s0.007-0.006 0.011-0.008 0.009-0.003 0.013-0.003c0.005 0 0.009 0.001 0.013 0.003s0.008 0.004 0.011 0.008c0.003 0.003 0.006 0.007 0.008 0.011zM18.105 14.421c0.019 0 0.035 0.016 0.035 0.035v8.14c0 0.009-0.004 0.018-0.010 0.025s-0.016 0.010-0.025 0.010c-0.009 0-0.018-0.004-0.025-0.010s-0.010-0.016-0.010-0.025v-8.14c0-0.019 0.016-0.035 0.035-0.035z"></path>
</symbol>
<symbol id="done" viewBox="0 0 32 32">
<path fill="currentColor" d="M12.733 24l-7.6-7.6 1.9-1.9 5.7 5.7 12.233-12.233 1.9 1.9-14.133 14.133z"></path>
</symbol>
<symbol id="star" viewBox="0 0 32 32">
<path stroke-linejoin="round" stroke-linecap="round" stroke-miterlimit="4" stroke-width="1.3333" d="M16.003 22.272l5.614 3.452c0.146 0.088 0.314 0.132 0.485 0.124s0.334-0.065 0.472-0.166c0.138-0.101 0.242-0.24 0.301-0.4s0.068-0.334 0.028-0.499l-1.527-6.442 4.997-4.309c0.127-0.112 0.219-0.259 0.264-0.422s0.041-0.337-0.011-0.498c-0.052-0.161-0.151-0.304-0.283-0.41s-0.293-0.171-0.462-0.187l-6.557-0.534-2.526-6.115c-0.064-0.158-0.174-0.293-0.316-0.388s-0.308-0.146-0.478-0.146-0.337 0.051-0.478 0.146c-0.141 0.095-0.251 0.23-0.316 0.388l-2.526 6.115-6.557 0.534c-0.17 0.015-0.332 0.080-0.465 0.186s-0.232 0.25-0.285 0.412c-0.052 0.162-0.056 0.336-0.010 0.501s0.139 0.311 0.268 0.423l4.997 4.309-1.527 6.437c-0.040 0.166-0.031 0.339 0.028 0.499s0.163 0.299 0.3 0.4c0.137 0.101 0.302 0.158 0.472 0.166s0.339-0.036 0.485-0.124l5.614-3.452z"></path>
</symbol>
<symbol id="chat" fill="none" stroke="currentColor" viewBox="0 0 32 32">
<path stroke-linejoin="round" stroke-linecap="round" stroke-miterlimit="4" stroke-width="2" d="M12.451 21.319c1.094 3.114 4.061 5.347 7.55 5.347 1.574 0 3.042-0.455 4.28-1.24l1.696 0.565c0.651 0.217 0.977 0.326 1.194 0.249 0.188-0.067 0.337-0.216 0.404-0.404 0.077-0.217-0.031-0.542-0.248-1.194l-0.565-1.696 0.189-0.314c0.669-1.169 1.051-2.523 1.051-3.966 0-4.418-3.582-8-8.001-8l-0.299 0.006-0.151 0.008M12 21.333c-1.574 0-3.042-0.455-4.28-1.24l-1.696 0.565c-0.651 0.217-0.977 0.326-1.194 0.248-0.188-0.067-0.337-0.216-0.404-0.404-0.077-0.217 0.031-0.542 0.249-1.194l0.565-1.696c-0.785-1.238-1.24-2.706-1.24-4.28 0-4.418 3.582-8 8-8s8 3.582 8 8c0 4.418-3.582 8-8 8z"></path>
</symbol>
<symbol id="data" fill="none" stroke="currentColor" viewBox="0 0 32 32">
<path  stroke-linejoin="round" stroke-linecap="round" stroke-miterlimit="4" stroke-width="2" d="M24 9.333v13.333c0 2.209-3.582 4-8 4s-8-1.791-8-4v-13.333M24 9.333c0-2.209-3.582-4-8-4s-8 1.791-8 4M24 9.333c0 2.209-3.582 4-8 4s-8-1.791-8-4M24 16c0 2.209-3.582 4-8 4s-8-1.791-8-4"></path>
</symbol>
<symbol id="chart_line" fill="none" viewBox="0 0 32 32">
<path stroke-linejoin="round" stroke="currentColor" stroke-linecap="round" stroke-miterlimit="4" stroke-width="2.6667" d="M28 26.667h-19.733c-1.493 0-2.241 0-2.811-0.291-0.502-0.256-0.909-0.663-1.165-1.165-0.291-0.57-0.291-1.317-0.291-2.811v-15.733M28 9.333l-7.794 6.82c-0.933 0.817-1.4 1.225-1.911 1.395-0.603 0.2-1.258 0.178-1.846-0.061-0.499-0.203-0.937-0.642-1.814-1.519-0.858-0.858-1.287-1.287-1.776-1.49-0.577-0.239-1.22-0.269-1.816-0.083-0.506 0.158-0.972 0.546-1.904 1.323l-5.138 4.282"></path>
</symbol>
<symbol id="brush" viewBox="0 0 32 32">
<path stroke="currentColor" fill="none" stroke-linejoin="round" stroke-linecap="round" stroke-miterlimit="4" stroke-width="2" d="M14.281 20.51c-0.286-0.705-0.809-1.289-1.478-1.652s-1.444-0.481-2.191-0.335c-0.747 0.146-1.421 0.547-1.905 1.135s-0.749 1.325-0.749 2.087c0 0.337-0.069 0.67-0.203 0.98s-0.33 0.588-0.577 0.818c-0.246 0.23-0.537 0.407-0.854 0.521s-0.655 0.16-0.991 0.138c0.541 0.94 1.377 1.674 2.378 2.090s2.112 0.49 3.159 0.21c1.047-0.28 1.973-0.898 2.633-1.758s1.018-1.914 1.018-2.998c0-0.437-0.085-0.853-0.241-1.234zM14.281 20.51c1.301-0.443 2.545-1.038 3.706-1.772M12.471 18.711c0.443-1.303 1.039-2.55 1.774-3.714M17.987 18.738c2.074-1.311 3.85-3.043 5.211-5.084l4.24-6.36c0.162-0.242 0.236-0.533 0.207-0.824s-0.157-0.562-0.363-0.768c-0.206-0.206-0.478-0.334-0.768-0.363s-0.581 0.045-0.824 0.207l-6.36 4.241c-2.042 1.361-3.775 3.137-5.086 5.211 1.665 0.744 2.997 2.076 3.741 3.741"></path>
</symbol>
<symbol id="analytics" viewBox="0 0 32 32">
<path fill="currentColor" d="M21.265 24.567c0.375 0.406 1.007 0.431 1.413 0.057s0.431-1.007 0.057-1.413l-1.47 1.357zM15.333 16.667h-1c0 0.251 0.095 0.494 0.265 0.678l0.735-0.678zM15.333 25.667c-4.971 0-9-4.029-9-9h-2c0 6.075 4.925 11 11 11v-2zM6.333 16.667c0-4.971 4.029-9 9-9v-2c-6.075 0-11 4.925-11 11h2zM15.333 7.667c4.971 0 9 4.029 9 9h2c0-6.075-4.925-11-11-11v2zM24.333 16.667c0 4.971-4.029 9-9 9v2c6.075 0 11-4.925 11-11h-2zM22.735 23.211l-6.667-7.222-1.47 1.357 6.667 7.222 1.47-1.357zM16.333 16.667v-10h-2v10h2zM15.333 17.667h10v-2h-10v2z"></path>
</symbol>
<symbol id="eye_hide" viewBox="0 0 32 32">
<path stroke-linejoin="round" stroke-linecap="round" stroke-miterlimit="4" stroke-width="2" d="M5.333 5.333l21.333 21.333M21.999 22.341c-1.803 0.971-3.842 1.659-6 1.659-4.708 0-8.845-3.269-11.217-5.628-0.626-0.623-0.939-0.934-1.139-1.545-0.142-0.436-0.142-1.218 0-1.654 0.199-0.611 0.513-0.923 1.141-1.547 1.196-1.189 2.84-2.608 4.779-3.724M25.999 19.511c0.444-0.391 0.851-0.775 1.216-1.137 0.628-0.624 0.941-0.936 1.141-1.547 0.142-0.436 0.143-1.218 0.001-1.654-0.199-0.611-0.513-0.922-1.139-1.545-2.373-2.359-6.51-5.628-11.218-5.628-0.45 0-0.895 0.030-1.333 0.086M17.763 18c-0.47 0.415-1.088 0.667-1.764 0.667-1.473 0-2.667-1.194-2.667-2.667 0-0.719 0.285-1.372 0.748-1.852"></path>
</symbol>
<symbol id="eye_show" viewBox="0 0 32 32">
<path stroke-linejoin="round" stroke-linecap="round" stroke-miterlimit="4" stroke-width="2" d="M5.199 18.372c2.284 2.359 6.268 5.628 10.801 5.628s8.516-3.269 10.801-5.628l0.001-0.001c0.602-0.622 0.904-0.933 1.095-1.544 0.137-0.436 0.137-1.218 0-1.654-0.192-0.611-0.493-0.922-1.096-1.544l-0.001-0.001c-2.285-2.359-6.268-5.628-10.801-5.628s-8.517 3.269-10.801 5.628c-0.603 0.623-0.904 0.934-1.096 1.545-0.137 0.436-0.137 1.218 0 1.654 0.192 0.611 0.493 0.922 1.096 1.545l0 0z"></path>
</symbol>
<symbol id="image" fill="none" viewBox="0 0 32 32">
<path stroke-linejoin="round" stroke="currentColor" stroke-linecap="round" stroke-miterlimit="4" stroke-width="2.6667" d="M25.333 4h-18.667c-1.473 0-2.667 1.194-2.667 2.667v18.667c0 1.473 1.194 2.667 2.667 2.667h18.667c1.473 0 2.667-1.194 2.667-2.667v-18.667c0-1.473-1.194-2.667-2.667-2.667z"></path>
<path stroke-linejoin="round" stroke="currentColor" stroke-linecap="round" stroke-miterlimit="4" stroke-width="2.6667" d="M11.333 13.333c1.105 0 2-0.895 2-2s-0.895-2-2-2c-1.105 0-2 0.895-2 2s0.895 2 2 2z"></path>
<path stroke-linejoin="round" stroke="currentColor" stroke-linecap="round" stroke-miterlimit="4" stroke-width="2.6667" d="M28 20l-6.667-6.667-14.667 14.667"></path>
</symbol>
<symbol id="notification" viewBox="0 0 32 32">
<path stroke-linejoin="round" stroke-linecap="round" stroke-miterlimit="4" stroke-width="2" d="M7.157 19.065l0.462-0.462c0.149-0.149 0.233-0.351 0.233-0.562v-4.412c0-4.582 3.714-8.296 8.296-8.296s8.296 3.714 8.296 8.296v4.412c0 0.211 0.084 0.413 0.233 0.562l0.462 0.462c0.141 0.141 0.212 0.212 0.269 0.291 0.107 0.148 0.177 0.319 0.207 0.499 0.016 0.095 0.016 0.195 0.016 0.395 0 0.457 0 0.685-0.062 0.87-0.118 0.351-0.394 0.626-0.744 0.744-0.184 0.062-0.413 0.062-0.87 0.062h-15.611c-0.457 0-0.685 0-0.87-0.062-0.351-0.118-0.626-0.393-0.744-0.744-0.062-0.184-0.062-0.413-0.062-0.87 0-0.2 0-0.3 0.016-0.395 0.030-0.18 0.1-0.351 0.207-0.499 0.056-0.078 0.127-0.149 0.269-0.291zM19.704 21.926v1.185c0 1.964-1.592 3.556-3.556 3.556s-3.556-1.592-3.556-3.556v-1.185h7.111z"></path>
</symbol>
<symbol id="exit" viewBox="0 0 32 32">
<path stroke-linejoin="round" stroke-linecap="round" stroke-miterlimit="4" stroke-width="2" d="M15.333 19.083l3.75-3.75M19.083 15.333l-3.75-3.75M19.083 15.333h-13.75M5.333 21.583c0 1.165 0 1.747 0.19 2.207 0.254 0.613 0.741 1.099 1.353 1.353 0.459 0.19 1.042 0.19 2.206 0.19h12.25c1.4 0 2.1 0 2.635-0.273 0.471-0.24 0.853-0.622 1.093-1.092 0.273-0.535 0.272-1.235 0.272-2.635v-12c0-1.4 0-2.1-0.272-2.635-0.24-0.47-0.623-0.853-1.093-1.093-0.535-0.272-1.235-0.272-2.635-0.272h-12.25c-1.165 0-1.747 0-2.206 0.19-0.613 0.254-1.1 0.74-1.353 1.353-0.19 0.459-0.19 1.042-0.19 2.207"></path>
</symbol>
<symbol id="info" viewBox="0 0 32 32">
<path stroke-linejoin="round" stroke-linecap="round" stroke-miterlimit="4" stroke-width="2" d="M15.333 14.222v5.555M15.333 25.333c-5.523 0-10-4.477-10-10s4.477-10 10-10c5.523 0 10 4.477 10 10s-4.477 10-10 10zM15.389 10.889v0.111l-0.111-0v-0.111h0.111z"></path>
</symbol>
<symbol id="help" fill="none" stroke="currentColor"  viewBox="0 0 32 32">
<path stroke-linejoin="round" stroke-linecap="round" stroke-miterlimit="4" stroke-width="2.8235" d="M16 30.118c7.797 0 14.118-6.321 14.118-14.118s-6.321-14.118-14.118-14.118c-7.797 0-14.118 6.321-14.118 14.118s6.321 14.118 14.118 14.118z"></path>
<path stroke-linejoin="round" stroke-linecap="round" stroke-miterlimit="4" stroke-width="2.8235" d="M11.892 11.765c0.332-0.944 0.987-1.739 1.849-2.246s1.876-0.692 2.862-0.523c0.986 0.169 1.88 0.682 2.524 1.447s0.997 1.734 0.995 2.734c0 2.824-4.235 4.235-4.235 4.235"></path>
<path stroke-linejoin="round" stroke-linecap="round" stroke-miterlimit="4" stroke-width="2.8235" d="M16 23.059h0.014"></path>
</symbol>
<symbol id="account" viewBox="0 0 32 32">
<path stroke-linejoin="round" stroke-linecap="round" stroke-miterlimit="4" stroke-width="2" d="M24.444 25.333c0-3.068-3.98-5.556-8.889-5.556s-8.889 2.487-8.889 5.556M15.556 16.444c-3.068 0-5.556-2.487-5.556-5.556s2.487-5.556 5.556-5.556 5.555 2.487 5.555 5.556c0 3.068-2.487 5.556-5.555 5.556z"></path>
</symbol>
<symbol id="gift" fill="none" stroke="currentColor"  viewBox="0 0 32 32">
<path stroke-linejoin="round" stroke-linecap="round" stroke-miterlimit="4" stroke-width="2" d="M15.922 25.333h7.529c0.659 0 0.989 0 1.241-0.128 0.221-0.113 0.4-0.293 0.513-0.514 0.128-0.252 0.129-0.581 0.129-1.24v-5.647c0-0.659-0-0.988-0.129-1.24-0.113-0.221-0.292-0.401-0.513-0.514-0.252-0.128-0.582-0.128-1.241-0.128h-5.647M15.922 25.333v-7.529M15.922 25.333h-7.53c-0.659 0-0.988 0-1.24-0.128-0.221-0.113-0.401-0.293-0.514-0.514-0.128-0.252-0.128-0.581-0.128-1.24v-5.647c0-0.659 0-0.988 0.128-1.24 0.113-0.221 0.293-0.401 0.514-0.514 0.252-0.128 0.581-0.128 1.24-0.128h5.647M15.922 17.804c0-0.659 0-0.988 0.128-1.24 0.113-0.221 0.293-0.401 0.514-0.514 0.252-0.128 0.581-0.128 1.24-0.128M15.922 17.804c0-0.659-0.001-0.988-0.129-1.24-0.113-0.221-0.292-0.401-0.513-0.514-0.252-0.128-0.582-0.128-1.241-0.128M17.803 15.922h6.823c0.659 0 0.989 0 1.241-0.128 0.221-0.113 0.401-0.293 0.513-0.514 0.128-0.252 0.129-0.581 0.129-1.24v-0.941c0-0.659-0.001-0.988-0.129-1.24-0.113-0.221-0.292-0.401-0.513-0.514-0.252-0.128-0.582-0.128-1.241-0.128h-6.823c-0.659 0-0.988 0-1.24 0.128-0.221 0.113-0.401 0.293-0.514 0.514-0.128 0.252-0.128 0.581-0.128 1.24M17.803 15.922c-0.659 0-0.988 0-1.24-0.128-0.221-0.113-0.401-0.293-0.514-0.514-0.128-0.252-0.128-0.581-0.128-1.24M14.039 15.922h-6.824c-0.659 0-0.988 0-1.24-0.128-0.221-0.113-0.401-0.293-0.514-0.514-0.128-0.252-0.128-0.581-0.128-1.24v-0.941c0-0.659 0-0.988 0.128-1.24 0.113-0.221 0.293-0.401 0.514-0.514 0.252-0.128 0.581-0.128 1.24-0.128h6.824c0.659 0 0.989 0 1.241 0.128 0.221 0.113 0.401 0.293 0.513 0.514 0.128 0.252 0.129 0.581 0.129 1.24M14.039 15.922c0.659 0 0.989 0 1.241-0.128 0.221-0.113 0.401-0.293 0.513-0.514 0.128-0.252 0.129-0.581 0.129-1.24M15.922 14.039v-0.941M15.922 8.274v2.941M15.922 8.274c0-1.624 1.317-2.941 2.941-2.941s2.941 1.317 2.941 2.941-1.317 2.941-2.941 2.941h-2.941M15.922 8.274c0-1.624-1.317-2.941-2.941-2.941s-2.941 1.317-2.941 2.941 1.317 2.941 2.941 2.941h2.941"></path>
</symbol>
<symbol id="customers" viewBox="0 0 32 32">
<path stroke="currentColor" fill="none" stroke-linejoin="round" stroke-linecap="round" stroke-miterlimit="4" stroke-width="2" d="M28 25.333c0-2.322-2.226-4.298-5.333-5.030M20 25.333c0-2.945-3.582-5.333-8-5.333s-8 2.388-8 5.333M20 16c2.945 0 5.333-2.388 5.333-5.333s-2.388-5.333-5.333-5.333M12 16c-2.946 0-5.333-2.388-5.333-5.333s2.388-5.333 5.333-5.333c2.945 0 5.333 2.388 5.333 5.333s-2.388 5.333-5.333 5.333z"></path>
</symbol>
<symbol id="services"  viewBox="0 0 32 32">
<path stroke-linejoin="round" stroke="currentColor" fill="none"  stroke-linecap="round" stroke-miterlimit="4" stroke-width="2" d="M21.583 10.333c0-2.761-2.239-5-5-5s-5 2.239-5 5M27.833 14.333v7c0 1.4 0 2.1-0.272 2.635-0.24 0.47-0.623 0.853-1.093 1.092-0.535 0.273-1.234 0.273-2.635 0.273h-14.5c-1.4 0-2.101 0-2.636-0.273-0.47-0.24-0.853-0.622-1.092-1.092-0.272-0.535-0.272-1.235-0.272-2.635v-7c0-1.4 0-2.1 0.272-2.635 0.24-0.47 0.622-0.853 1.092-1.093 0.535-0.272 1.235-0.272 2.636-0.272h14.5c1.4 0 2.1 0 2.635 0.272 0.47 0.24 0.853 0.622 1.093 1.093 0.273 0.535 0.272 1.235 0.272 2.635z"></path>
</symbol>
<symbol id="calendar" viewBox="0 0 32 32">
<path fill="currentColor" d="M11 5.333c0.626 0 1.133 0.507 1.133 1.133v1.133h6.8v-1.133c0-0.626 0.507-1.133 1.133-1.133s1.133 0.507 1.133 1.133v1.133c0.52 0 0.974 0.004 1.354 0.035 0.448 0.037 0.893 0.117 1.322 0.336 0.639 0.326 1.16 0.846 1.486 1.486 0.219 0.429 0.299 0.875 0.336 1.323 0.035 0.424 0.035 0.938 0.035 1.534v10.973c0 0.596 0 1.111-0.035 1.534-0.037 0.448-0.117 0.894-0.336 1.323-0.326 0.64-0.847 1.16-1.486 1.486-0.429 0.219-0.874 0.299-1.322 0.336-0.425 0.035-0.94 0.035-1.538 0.035h-10.966c-0.598 0-1.113 0-1.538-0.035-0.448-0.037-0.894-0.117-1.323-0.336-0.64-0.326-1.16-0.846-1.486-1.486-0.218-0.429-0.299-0.875-0.336-1.323-0.035-0.425-0.035-0.94-0.035-1.537v-10.967c0-0.597-0-1.113 0.035-1.537 0.037-0.448 0.117-0.894 0.336-1.322 0.326-0.639 0.846-1.16 1.486-1.486 0.429-0.219 0.875-0.299 1.323-0.336 0.381-0.031 0.834-0.034 1.354-0.035v-1.133c0-0.626 0.507-1.133 1.133-1.133zM10.094 9.867c-0.653 0-1.075 0.001-1.397 0.027-0.308 0.025-0.422 0.068-0.478 0.096-0.213 0.109-0.386 0.282-0.495 0.495-0.029 0.056-0.071 0.17-0.096 0.478-0.023 0.282-0.027 0.643-0.027 1.17h15.866c-0-0.527-0.004-0.888-0.027-1.17-0.025-0.308-0.068-0.422-0.096-0.478-0.108-0.213-0.282-0.386-0.496-0.495-0.056-0.029-0.17-0.071-0.478-0.096-0.321-0.026-0.743-0.027-1.396-0.027h-10.88zM23.467 14.4h-15.867v8.84c0 0.653 0.001 1.075 0.027 1.396 0.025 0.308 0.068 0.422 0.096 0.478 0.109 0.213 0.282 0.387 0.495 0.495 0.056 0.029 0.17 0.071 0.478 0.096 0.321 0.026 0.743 0.027 1.397 0.027h10.88c0.653 0 1.075-0.001 1.396-0.027 0.308-0.025 0.422-0.068 0.478-0.097 0.214-0.109 0.387-0.283 0.496-0.495 0.029-0.056 0.071-0.17 0.096-0.478 0.026-0.321 0.027-0.743 0.027-1.397v-8.84z"></path>
</symbol>
</defs>
</svg>
